<svg xmlns="http://www.w3.org/2000/svg" viewBox="0 0 240 160" width="240" height="160" role="img" aria-label="Sidebar Brand layout thumbnail">
  <rect x="0" y="0" width="72" height="160" fill="#e2e8f0"/>
  <circle cx="16" cy="20" r="6" fill="#6366f1"/>
  <rect x="26" y="17" width="36" height="4" rx="1.5" fill="#6366f1"/>
  <g transform="translate(10, 48)">
    <circle cx="2" cy="4" r="1.5" fill="#94a3b8"/>
    <rect x="8" y="2" width="44" height="3" rx="1.5" fill="#94a3b8"/>
    <circle cx="2" cy="14" r="1.5" fill="#94a3b8"/>
    <rect x="8" y="12" width="48" height="3" rx="1.5" fill="#94a3b8"/>
    <circle cx="2" cy="24" r="1.5" fill="#94a3b8"/>
    <rect x="8" y="22" width="40" height="3" rx="1.5" fill="#94a3b8"/>
  </g>
  <rect x="8" y="138" width="40" height="3" rx="1.5" fill="#cbd5e1"/>
  <rect x="72" y="0" width="168" height="160" fill="#f1f5f9"/>
  <circle cx="228" cy="14" r="3" fill="#cbd5e1"/>
  <circle cx="218" cy="14" r="3" fill="#cbd5e1"/>
  <g transform="translate(120, 40)">
    <circle cx="36" cy="10" r="6" fill="#94a3b8"/>
    <rect x="18" y="22" width="36" height="3" rx="1.5" fill="#64748b"/>
    <rect x="0" y="42" width="72" height="9" rx="3" fill="#ffffff" stroke="#cbd5e1"/>
    <rect x="0" y="54" width="72" height="9" rx="3" fill="#ffffff" stroke="#cbd5e1"/>
    <rect x="0" y="70" width="72" height="11" rx="3" fill="#6366f1"/>
  </g>
</svg>
