<svg xmlns="http://www.w3.org/2000/svg" viewBox="0 0 240 160" width="240" height="160" role="img" aria-label="Split Hero layout thumbnail">
  <defs>
    <linearGradient id="sh-hero" x1="0" y1="0" x2="1" y2="1">
      <stop offset="0%" stop-color="#6366f1"/>
      <stop offset="100%" stop-color="#ec4899"/>
    </linearGradient>
  </defs>
  <rect x="0" y="0" width="112" height="160" fill="url(#sh-hero)"/>
  <rect x="0" y="0" width="112" height="160" fill="rgba(0,0,0,0.15)"/>
  <rect x="12" y="112" width="80" height="6" rx="2" fill="#ffffff" opacity="0.95"/>
  <rect x="12" y="124" width="60" height="3" rx="1.5" fill="#ffffff" opacity="0.75"/>
  <rect x="12" y="132" width="66" height="3" rx="1.5" fill="#ffffff" opacity="0.75"/>
  <rect x="112" y="0" width="128" height="160" fill="#f1f5f9"/>
  <circle cx="228" cy="14" r="3" fill="#cbd5e1"/>
  <circle cx="218" cy="14" r="3" fill="#cbd5e1"/>
  <g transform="translate(140, 36)">
    <circle cx="36" cy="10" r="6" fill="#94a3b8"/>
    <rect x="16" y="22" width="40" height="3" rx="1.5" fill="#64748b"/>
    <rect x="0" y="42" width="72" height="9" rx="3" fill="#ffffff" stroke="#cbd5e1"/>
    <rect x="0" y="54" width="72" height="9" rx="3" fill="#ffffff" stroke="#cbd5e1"/>
    <rect x="0" y="70" width="72" height="11" rx="3" fill="#6366f1"/>
  </g>
</svg>
