<svg xmlns="http://www.w3.org/2000/svg" direction="ltr" width="203" height="200" viewBox="-459.05226072888286 1744.3503816031232 203 200" stroke-linecap="round" stroke-linejoin="round" data-color-mode="light" class="tl-container tl-theme__force-sRGB tl-theme__light" style="background-color: transparent;"><defs/><g transform="matrix(1, 0, 0, 1, -459.0523, 1744.3504)" opacity="1"><g data-lovart-layer-name="SVG 3"><g transform="scale(1, 1.0000000000000002)"><g>
<path xmlns="http://www.w3.org/2000/svg" fill="#0168ff" d="   M 105.65 0.00   Q 109.50 0.78 113.42 1.37   C 131.96 4.16 147.68 13.24 159.07 27.61   C 172.98 45.16 178.01 68.94 172.52 91.29   C 167.99 109.70 154.78 125.56 138.67 135.27   A 0.26 0.26 0.0 0 1 138.31 134.91   C 153.99 108.92 151.24 75.63 133.54 51.41   C 118.91 31.40 96.73 19.92 72.04 19.33   Q 44.94 18.68 22.03 36.10   A 0.18 0.18 0.0 0 1 21.79 35.83   Q 51.50 2.13 96.75 0.00   L 105.65 0.00   Z"/>
<path xmlns="http://www.w3.org/2000/svg" fill="#43ffbb" d="   M 164.16 24.17   A 0.23 0.23 0.0 0 1 164.18 23.85   L 164.19 23.84   A 0.21 0.21 0.0 0 1 164.47 23.83   Q 182.07 39.04 191.12 58.61   Q 202.31 82.80 200.00 109.98   A 2.38 2.35 -32.1 0 1 199.85 110.62   L 199.05 112.65   A 7.45 6.80 -32.4 0 0 198.64 114.16   Q 194.83 138.38 178.08 154.83   C 162.22 170.40 141.37 177.19 119.40 175.51   Q 102.47 174.20 87.78 164.50   Q 73.48 155.06 64.61 140.11   A 0.21 0.21 0.0 0 1 64.89 139.82   C 82.28 149.68 105.22 152.50 123.86 146.97   C 141.36 141.79 155.75 132.61 166.50 117.43   Q 185.48 90.64 179.64 57.41   Q 176.45 39.25 164.16 24.17   Z"/>
<path xmlns="http://www.w3.org/2000/svg" fill="#ff2448" d="   M 0.00 105.38   L 0.00 97.32   C 0.88 87.53 1.17 78.71 5.06 69.59   Q 16.68 42.36 44.33 30.63   C 58.84 24.46 76.73 23.71 91.74 27.82   C 109.25 32.61 124.22 45.78 133.67 61.19   A 0.31 0.31 0.0 0 1 133.25 61.63   Q 114.87 51.52 94.51 51.83   Q 73.66 52.14 56.53 62.41   C 30.05 78.29 14.83 108.32 18.92 139.17   C 20.73 152.79 27.75 166.68 35.92 177.69   A 0.16 0.16 0.0 0 1 35.68 177.91   Q 2.85 149.07 0.00 105.38   Z"/>
<path xmlns="http://www.w3.org/2000/svg" fill="#ff488a" d="   M 102.84 200.00   L 96.37 200.00   Q 83.36 199.14 73.95 196.30   Q 57.05 191.20 44.23 178.49   C 26.94 161.35 20.48 137.55 24.84 113.46   C 28.42 93.65 41.93 76.42 58.74 65.91   A 0.24 0.24 0.0 0 1 59.08 66.21   C 47.68 89.67 46.30 115.70 58.13 138.74   Q 70.19 162.23 93.75 174.03   C 111.54 182.94 133.65 184.84 152.11 176.82   C 161.09 172.92 169.43 169.12 177.35 162.54   A 0.16 0.16 0.0 0 1 177.57 162.76   Q 148.59 197.44 102.84 200.00   Z"/>
</g></g></g></g></svg>