<?xml version="1.0" encoding="UTF-8" standalone="no"?>
<!DOCTYPE svg PUBLIC "-//W3C//DTD SVG 1.1//EN" "http://www.w3.org/Graphics/SVG/1.1/DTD/svg11.dtd">
<svg width="100%" height="100%" viewBox="0 0 165 138" version="1.1" xmlns="http://www.w3.org/2000/svg" xmlns:xlink="http://www.w3.org/1999/xlink" xml:space="preserve" xmlns:serif="http://www.serif.com/" style="fill-rule:evenodd;clip-rule:evenodd;stroke-linejoin:round;stroke-miterlimit:2;">
    <g transform="matrix(5.3924,0,0,5.3924,-1.61772,-16.7165)">
        <path d="M20.8,23.395C20.976,23.214 21.269,23.21 21.45,23.385L21.474,23.409C21.504,23.446 21.537,23.479 21.567,23.513C22.292,24.238 23.237,24.703 24.254,24.833C24.686,24.873 25.092,25.061 25.401,25.366C25.75,25.714 25.946,26.186 25.946,26.679C25.946,27.172 25.75,27.644 25.401,27.992C25.053,28.341 24.581,28.537 24.089,28.537C23.596,28.537 23.124,28.341 22.776,27.992L22.773,27.995C22.469,27.692 22.28,27.292 22.24,26.865L22.236,26.865C22.112,25.839 21.646,24.885 20.913,24.157C20.88,24.124 20.847,24.091 20.816,24.067L20.792,24.043C20.622,23.861 20.626,23.573 20.801,23.395L20.8,23.395ZM13.055,3.1C20.087,3.1 25.808,8.055 25.808,14.185C25.808,14.409 25.799,14.63 25.788,14.851L25.778,14.987L25.675,14.897C24.985,14.285 24.015,14.092 23.143,14.394L23.052,14.424L23.052,13.973C22.892,9.415 18.479,5.732 13.052,5.731C11.922,5.731 10.835,5.891 9.82,6.186L9.39,6.319C5.674,7.564 3.05,10.641 3.05,14.221C3.05,16.741 4.35,19.009 6.416,20.568L6.51,20.65C6.686,20.826 6.781,21.067 6.773,21.316L6.761,21.441L6.411,23.436C6.409,23.446 6.408,23.457 6.408,23.468C6.408,23.561 6.485,23.639 6.579,23.639C6.609,23.639 6.638,23.631 6.664,23.616L8.957,22.292L9.042,22.25C9.242,22.162 9.466,22.15 9.675,22.213L10.075,22.328C11.047,22.586 12.049,22.715 13.055,22.713C14.242,22.713 15.42,22.532 16.492,22.195L16.565,22.174L16.577,22.25C16.736,23.143 17.357,23.888 18.207,24.206L18.373,24.27L18.206,24.333C16.561,24.96 14.815,25.28 13.055,25.275C11.735,25.275 10.462,25.099 9.263,24.775L5.473,26.623C5.342,26.686 5.199,26.719 5.054,26.719C4.527,26.719 4.094,26.286 4.094,25.759C4.094,25.726 4.096,25.693 4.099,25.66L4.444,22.368C1.9,20.34 0.3,17.425 0.3,14.188C0.3,8.055 6.018,3.1 13.054,3.1L13.055,3.1ZM27.65,20.381C27.998,20.032 28.47,19.836 28.963,19.836C29.455,19.836 29.927,20.032 30.275,20.381C30.624,20.729 30.82,21.201 30.82,21.694C30.82,22.187 30.624,22.659 30.275,23.007L30.275,23.01C29.973,23.314 29.573,23.503 29.146,23.543L29.143,23.543C28.12,23.671 27.168,24.138 26.441,24.869C26.409,24.9 26.379,24.932 26.351,24.966L26.326,24.99C26.144,25.16 25.856,25.156 25.679,24.981C25.499,24.806 25.495,24.514 25.669,24.333L25.693,24.309C25.73,24.279 25.763,24.245 25.796,24.215C26.522,23.49 26.986,22.545 27.117,21.528C27.157,21.096 27.345,20.69 27.65,20.381ZM21.734,18.513C21.916,18.342 22.205,18.345 22.382,18.521C22.562,18.697 22.567,18.989 22.392,19.17L22.367,19.193C22.331,19.223 22.297,19.258 22.264,19.288C21.539,20.012 21.074,20.957 20.944,21.974C20.904,22.407 20.716,22.813 20.411,23.122C20.063,23.471 19.59,23.668 19.097,23.668C18.605,23.668 18.132,23.471 17.784,23.122C17.435,22.774 17.239,22.302 17.239,21.809C17.239,21.316 17.435,20.844 17.784,20.496L17.784,20.493C18.087,20.189 18.487,20 18.914,19.96L18.917,19.96C19.94,19.832 20.892,19.365 21.619,18.634C21.653,18.6 21.686,18.566 21.71,18.536L21.734,18.513ZM22.661,15.507C23.009,15.158 23.481,14.962 23.974,14.962C24.466,14.962 24.938,15.158 25.286,15.507L25.29,15.505C25.605,15.82 25.783,16.22 25.822,16.635L25.825,16.635C25.949,17.66 26.416,18.614 27.149,19.342C27.183,19.375 27.216,19.408 27.246,19.432L27.27,19.457C27.44,19.64 27.435,19.928 27.26,20.105C27.085,20.285 26.793,20.289 26.613,20.115L26.589,20.09C26.559,20.054 26.525,20.02 26.495,19.987C25.771,19.262 24.826,18.797 23.809,18.667C23.377,18.627 22.971,18.439 22.662,18.134C22.313,17.786 22.117,17.314 22.117,16.821C22.117,16.328 22.313,15.856 22.662,15.508L22.661,15.507Z" style="fill-rule:nonzero;"/>
    </g>
</svg>
