<svg xmlns="http://www.w3.org/2000/svg" direction="ltr" width="371" height="361" viewBox="-277.2747292682909 871.1750174985166 371 361" stroke-linecap="round" stroke-linejoin="round" data-color-mode="light" class="tl-container tl-theme__force-sRGB tl-theme__light" style="background-color: transparent;"><defs/><g transform="matrix(1, 0, 0, 1, -277.2747, 871.175)" opacity="1"><g data-lovart-layer-name="SVG 1"><g transform="scale(1, 1)"><g>
<path xmlns="http://www.w3.org/2000/svg" fill="#3873ff" d="   M 185.36 361.00   L 174.85 361.00   C 97.01 358.29 29.55 306.46 7.55 231.72   C 1.71 211.87 -0.20 192.44 0.64 171.86   C 2.42 128.20 21.04 86.56 51.54 55.32   C 108.47 -3.00 198.78 -16.20 269.70 24.64   A 1.09 1.09 0.0 0 0 270.80 24.64   Q 289.59 13.58 309.44 16.99   C 354.91 24.82 371.01 82.09 336.80 112.78   C 309.64 137.15 266.58 128.06 251.00 95.87   Q 241.09 75.38 248.43 53.62   A 0.61 0.61 0.0 0 0 248.13 52.88   C 204.32 29.75 150.93 31.01 108.14 55.88   C 46.12 91.93 19.37 167.81 45.62 234.47   C 63.80 280.64 104.64 314.83 153.73 324.11   C 232.45 339.00 306.94 287.03 322.81 209.07   Q 323.64 205.01 324.75 197.86   A 0.44 0.44 0.0 0 0 324.32 197.35   L 246.82 197.35   A 0.54 0.54 0.0 0 0 246.30 197.75   C 233.34 246.46 173.84 264.82 135.82 231.44   C 109.72 208.53 105.18 169.28 125.33 141.08   C 151.00 105.15 203.50 102.64 232.22 136.28   Q 242.07 147.83 246.35 163.11   A 0.70 0.68 -7.7 0 0 247.02 163.61   L 358.78 163.61   A 0.80 0.79 87.6 0 1 359.57 164.34   Q 364.47 231.01 326.85 284.78   C 294.62 330.84 241.77 358.98 185.36 361.00   Z   M 320.37 71.13   A 20.12 20.12 0.0 0 0 300.25 51.01   A 20.12 20.12 0.0 0 0 280.13 71.13   A 20.12 20.12 0.0 0 0 300.25 91.25   A 20.12 20.12 0.0 0 0 320.37 71.13   Z   M 214.29 180.95   A 33.64 33.64 0.0 0 0 180.65 147.31   A 33.64 33.64 0.0 0 0 147.01 180.95   A 33.64 33.64 0.0 0 0 180.65 214.59   A 33.64 33.64 0.0 0 0 214.29 180.95   Z"/>
</g></g></g></g></svg>