<svg xmlns="http://www.w3.org/2000/svg" direction="ltr" width="167" height="167" viewBox="83.94773927111714 1432.1113539097898 167 167" stroke-linecap="round" stroke-linejoin="round" data-color-mode="light" class="tl-container tl-theme__force-sRGB tl-theme__light" style="background-color: transparent;"><defs/><g transform="matrix(1, 0, 0, 1, 83.9477, 1432.1114)" opacity="1"><g data-lovart-layer-name="SVG 2"><g transform="scale(1, 1)"><g>
<g xmlns="http://www.w3.org/2000/svg" stroke-width="2.00" fill="none" stroke-linecap="butt">
<path stroke="#00cabe" stroke-opacity="0.753" vector-effect="non-scaling-stroke" d="   M 62.96 21.39   L 62.84 21.51"/>
<path stroke="#00bfbf" stroke-opacity="0.902" vector-effect="non-scaling-stroke" d="   M 62.86 42.15   Q 53.56 42.15 44.50 42.23   Q 42.80 42.24 42.08 42.94"/>
<path stroke="#00c6bf" stroke-opacity="0.902" vector-effect="non-scaling-stroke" d="   M 104.25 21.41   L 104.26 37.14"/>
<path stroke="#80e3df" vector-effect="non-scaling-stroke" d="   M 104.26 37.14   C 97.94 33.65 95.53 38.81 92.04 42.44"/>
<path stroke="#00c0bf" vector-effect="non-scaling-stroke" d="   M 92.04 42.44   L 62.86 42.15"/>
<path stroke="#00c6bf" stroke-opacity="0.902" vector-effect="non-scaling-stroke" d="   M 62.86 42.15   L 62.84 21.51"/>
<path stroke="#00ccbf" stroke-opacity="0.851" vector-effect="non-scaling-stroke" d="   M 104.25 21.41   L 62.96 21.39"/>
<path stroke="#00b2bf" vector-effect="non-scaling-stroke" d="   M 46.55 63.50   L 42.05 62.66"/>
<path stroke="#00b9bf" stroke-opacity="0.902" vector-effect="non-scaling-stroke" d="   M 42.05 62.66   L 42.08 42.94"/>
<path stroke="#00b1bf" stroke-opacity="0.902" vector-effect="non-scaling-stroke" d="   M 42.05 62.66   L 21.58 62.66"/>
<path stroke="#00bfbf" stroke-opacity="0.902" vector-effect="non-scaling-stroke" d="   M 124.63 42.06   L 106.51 42.10"/>
<path stroke="#8ee6e3" stroke-opacity="0.902" vector-effect="non-scaling-stroke" d="   M 106.51 42.10   Q 106.22 38.91 104.26 37.14"/>
<path stroke="#80dcdf" vector-effect="non-scaling-stroke" d="   M 106.51 42.10   Q 106.34 44.26 105.25 45.50   Q 92.80 59.63 80.59 73.56   A 0.89 0.89 0.0 0 0 80.49 74.59   L 80.74 75.03   A 1.28 1.27 53.2 0 0 82.72 75.32   Q 106.19 53.19 114.50 45.51   C 117.09 43.11 121.46 43.93 123.32 47.09   Q 125.68 51.09 121.82 54.83   Q 99.91 76.08 91.52 84.32   A 1.38 1.37 53.1 0 0 91.29 85.99   L 91.47 86.30   A 1.31 1.30 -34.0 0 0 93.41 86.67   Q 107.16 75.86 121.23 64.99   Q 123.25 63.43 125.53 63.67"/>
<path stroke="#80d5df" vector-effect="non-scaling-stroke" d="   M 125.53 63.67   Q 129.60 64.77 129.61 69.01   Q 129.62 71.70 128.30 72.81   Q 122.39 77.81 116.39 82.96"/>
<path stroke="#80cedf" vector-effect="non-scaling-stroke" d="   M 116.39 82.96   L 97.75 98.73   A 2.63 2.62 64.0 0 0 96.88 101.27   L 96.91 101.37   A 1.07 1.07 0.0 0 0 98.65 101.96   Q 116.42 89.01 116.90 88.65   C 120.02 86.36 124.90 83.94 126.76 89.10   C 127.37 90.80 126.25 93.37 125.08 94.34   Q 119.79 98.76 114.43 103.20"/>
<path stroke="#80c7df" vector-effect="non-scaling-stroke" d="   M 114.43 103.20   L 88.91 124.48"/>
<path stroke="#80c1df" vector-effect="non-scaling-stroke" d="   M 88.91 124.48   C 80.80 129.94 72.12 130.42 62.89 127.45"/>
<path stroke="#8ec7e3" stroke-opacity="0.902" vector-effect="non-scaling-stroke" d="   M 62.89 127.45   L 56.79 124.71"/>
<path stroke="#80c7df" vector-effect="non-scaling-stroke" d="   M 56.79 124.71   Q 47.87 119.43 42.35 110.69"/>
<path stroke="#8ecde3" stroke-opacity="0.902" vector-effect="non-scaling-stroke" d="   M 42.35 110.69   L 39.36 104.14"/>
<path stroke="#80cedf" vector-effect="non-scaling-stroke" d="   M 39.36 104.14   Q 35.75 93.84 38.38 83.78"/>
<path stroke="#80d5df" vector-effect="non-scaling-stroke" d="   M 38.38 83.78   L 46.55 63.50"/>
<path stroke="#80dcdf" vector-effect="non-scaling-stroke" d="   M 46.55 63.50   C 47.73 60.60 49.10 56.31 51.29 54.50   C 55.01 51.43 60.59 52.00 62.08 56.96   Q 62.95 59.83 61.95 62.04   Q 59.50 67.46 55.16 77.03   A 1.47 1.47 0.0 0 0 56.12 79.06   C 58.06 79.59 59.03 79.00 60.44 77.43   Q 76.14 60.06 92.04 42.44"/>
<path stroke="#00afbe" stroke-opacity="0.753" vector-effect="non-scaling-stroke" d="   M 21.58 62.66   Q 21.51 62.77 21.43 62.88"/>
<path stroke="#00a4bf" vector-effect="non-scaling-stroke" d="   M 38.38 83.78   Q 29.91 82.77 21.39 84.19"/>
<path stroke="#00a9bf" stroke-opacity="0.851" vector-effect="non-scaling-stroke" d="   M 21.39 84.19   L 21.43 62.88"/>
<path stroke="#00b9bf" stroke-opacity="0.902" vector-effect="non-scaling-stroke" d="   M 124.88 42.32   L 124.95 62.15   A 0.48 0.46 32.6 0 0 125.00 62.36   Q 125.29 62.87 126.04 62.80"/>
<path stroke="#00b2bf" vector-effect="non-scaling-stroke" d="   M 126.04 62.80   Q 125.61 63.27 125.53 63.67"/>
<path stroke="#00bfbf" stroke-opacity="0.851" vector-effect="non-scaling-stroke" d="   M 124.88 42.32   Q 124.67 42.23 124.63 42.06"/>
<path stroke="#008fbf" stroke-opacity="0.902" vector-effect="non-scaling-stroke" d="   M 42.35 110.69   L 42.12 124.81"/>
<path stroke="#0097bf" stroke-opacity="0.902" vector-effect="non-scaling-stroke" d="   M 39.36 104.14   L 21.55 104.17"/>
<path stroke="#0082bf" stroke-opacity="0.902" vector-effect="non-scaling-stroke" d="   M 104.20 124.99   L 104.24 145.49"/>
<path stroke="#007cbf" stroke-opacity="0.851" vector-effect="non-scaling-stroke" d="   M 104.24 145.49   L 62.94 145.50"/>
<path stroke="#007dbe" stroke-opacity="0.753" vector-effect="non-scaling-stroke" d="   M 62.94 145.50   Q 62.79 145.56 62.45 145.44"/>
<path stroke="#0082bf" stroke-opacity="0.902" vector-effect="non-scaling-stroke" d="   M 62.45 145.44   L 62.84 144.09   A 1.91 1.74 56.2 0 0 62.92 143.55   L 62.89 127.45"/>
<path stroke="#00a4bf" vector-effect="non-scaling-stroke" d="   M 145.60 82.84   Q 131.03 83.87 116.39 82.96"/>
<path stroke="#0098be" stroke-opacity="0.753" vector-effect="non-scaling-stroke" d="   M 145.63 104.10   Q 145.28 104.59 145.41 104.19"/>
<path stroke="#0097bf" stroke-opacity="0.902" vector-effect="non-scaling-stroke" d="   M 145.41 104.19   L 124.92 104.20"/>
<path stroke="#0096bf" vector-effect="non-scaling-stroke" d="   M 124.92 104.20   L 114.43 103.20"/>
<path stroke="#0089bf" stroke-opacity="0.902" vector-effect="non-scaling-stroke" d="   M 56.79 124.71   L 42.13 124.86"/>
<path stroke="#008abf" stroke-opacity="0.851" vector-effect="non-scaling-stroke" d="   M 42.13 124.86   Q 42.12 124.84 42.12 124.81"/>
<path stroke="#008fbf" stroke-opacity="0.902" vector-effect="non-scaling-stroke" d="   M 124.92 104.20   L 124.90 124.60"/>
<path stroke="#0089bf" stroke-opacity="0.902" vector-effect="non-scaling-stroke" d="   M 124.90 124.60   L 104.20 124.99"/>
<path stroke="#0089bf" vector-effect="non-scaling-stroke" d="   M 104.20 124.99   L 88.91 124.48"/>
<path stroke="#00a0bf" stroke-opacity="0.851" vector-effect="non-scaling-stroke" d="   M 21.39 84.19   L 21.55 104.17"/>
<path stroke="#00b1bf" stroke-opacity="0.902" vector-effect="non-scaling-stroke" d="   M 145.57 62.74   L 126.04 62.80"/>
<path stroke="#00a0bf" stroke-opacity="0.851" vector-effect="non-scaling-stroke" d="   M 145.63 104.10   L 145.60 82.84"/>
<path stroke="#00a9bf" stroke-opacity="0.851" vector-effect="non-scaling-stroke" d="   M 145.60 82.84   L 145.57 62.74"/>
</g>
<path xmlns="http://www.w3.org/2000/svg" fill="#00d3bd" fill-opacity="0.502" d="   M 62.87 0.65   L 62.96 21.39   L 62.84 21.51   L 42.34 21.46   L 41.46 21.49   Q 42.16 21.11 42.15 20.49   Q 42.04 10.91 42.22 1.20   A 0.52 0.52 0.0 0 1 42.74 0.69   L 62.87 0.65   Z"/>
<path xmlns="http://www.w3.org/2000/svg" fill="#00d4c0" fill-opacity="0.698" d="   M 104.22 0.65   Q 104.10 10.61 104.23 20.30   Q 104.23 20.95 104.52 21.17   Q 104.86 21.43 105.45 21.35   Q 104.75 21.53 104.25 21.41   L 62.96 21.39   L 62.87 0.65   L 104.22 0.65   Z"/>
<path xmlns="http://www.w3.org/2000/svg" fill="#00d3bd" fill-opacity="0.502" d="   M 124.93 21.43   L 124.23 21.36   L 105.45 21.35   Q 104.86 21.43 104.52 21.17   Q 104.23 20.95 104.23 20.30   Q 104.10 10.61 104.22 0.65   L 124.19 0.67   A 0.68 0.68 0.0 0 1 124.87 1.35   L 124.93 21.43   Z"/>
<path xmlns="http://www.w3.org/2000/svg" fill="#00c7c0" fill-opacity="0.698" d="   M 41.46 21.49   L 42.34 21.46   Q 41.95 29.90 42.07 38.24   Q 42.10 40.03 42.48 41.78   A 0.53 0.53 0.0 0 1 42.14 42.39   Q 42.00 42.44 41.84 42.45   L 21.57 42.54   Q 21.20 42.23 21.39 42.04   L 21.49 22.10   A 0.52 0.51 -0.6 0 1 22.00 21.59   L 41.46 21.49   Z"/>
<path xmlns="http://www.w3.org/2000/svg" fill="#00c6bf" d="   M 104.25 21.41   L 104.26 37.14   C 97.94 33.65 95.53 38.81 92.04 42.44   L 62.86 42.15   L 62.84 21.51   L 62.96 21.39   L 104.25 21.41   Z"/>
<path xmlns="http://www.w3.org/2000/svg" fill="#00c6bf" fill-opacity="0.800" d="   M 124.23 21.36   Q 124.49 22.05 124.53 22.65   Q 125.05 32.18 124.63 42.06   L 106.51 42.10   Q 106.22 38.91 104.26 37.14   L 104.25 21.41   Q 104.75 21.53 105.45 21.35   L 124.23 21.36   Z"/>
<path xmlns="http://www.w3.org/2000/svg" fill="#00c7c0" fill-opacity="0.698" d="   M 145.62 42.14   Q 145.84 42.23 145.61 42.86   Q 145.47 42.70 145.32 42.56   A 1.16 1.15 64.3 0 0 144.59 42.30   L 124.88 42.32   Q 124.67 42.23 124.63 42.06   Q 125.05 32.18 124.53 22.65   Q 124.49 22.05 124.23 21.36   L 124.93 21.43   L 145.01 21.53   A 0.53 0.52 0.6 0 1 145.53 22.05   L 145.62 42.14   Z"/>
<path xmlns="http://www.w3.org/2000/svg" fill="#00c6bf" fill-opacity="0.800" d="   M 62.84 21.51   L 62.86 42.15   Q 53.56 42.15 44.50 42.23   Q 42.80 42.24 42.08 42.94   Q 42.05 42.67 41.84 42.45   Q 42.00 42.44 42.14 42.39   A 0.53 0.53 0.0 0 0 42.48 41.78   Q 42.10 40.03 42.07 38.24   Q 41.95 29.90 42.34 21.46   L 62.84 21.51   Z"/>
<path xmlns="http://www.w3.org/2000/svg" fill="#ffffff" d="   M 104.26 37.14   Q 106.22 38.91 106.51 42.10   Q 106.34 44.26 105.25 45.50   Q 92.80 59.63 80.59 73.56   A 0.89 0.89 0.0 0 0 80.49 74.59   L 80.74 75.03   A 1.28 1.27 53.2 0 0 82.72 75.32   Q 106.19 53.19 114.50 45.51   C 117.09 43.11 121.46 43.93 123.32 47.09   Q 125.68 51.09 121.82 54.83   Q 99.91 76.08 91.52 84.32   A 1.38 1.37 53.1 0 0 91.29 85.99   L 91.47 86.30   A 1.31 1.30 -34.0 0 0 93.41 86.67   Q 107.16 75.86 121.23 64.99   Q 123.25 63.43 125.53 63.67   Q 129.60 64.77 129.61 69.01   Q 129.62 71.70 128.30 72.81   Q 122.39 77.81 116.39 82.96   L 97.75 98.73   A 2.63 2.62 64.0 0 0 96.88 101.27   L 96.91 101.37   A 1.07 1.07 0.0 0 0 98.65 101.96   Q 116.42 89.01 116.90 88.65   C 120.02 86.36 124.90 83.94 126.76 89.10   C 127.37 90.80 126.25 93.37 125.08 94.34   Q 119.79 98.76 114.43 103.20   L 88.91 124.48   C 80.80 129.94 72.12 130.42 62.89 127.45   L 56.79 124.71   Q 47.87 119.43 42.35 110.69   L 39.36 104.14   Q 35.75 93.84 38.38 83.78   L 46.55 63.50   C 47.73 60.60 49.10 56.31 51.29 54.50   C 55.01 51.43 60.59 52.00 62.08 56.96   Q 62.95 59.83 61.95 62.04   Q 59.50 67.46 55.16 77.03   A 1.47 1.47 0.0 0 0 56.12 79.06   C 58.06 79.59 59.03 79.00 60.44 77.43   Q 76.14 60.06 92.04 42.44   C 95.53 38.81 97.94 33.65 104.26 37.14   Z"/>
<path xmlns="http://www.w3.org/2000/svg" fill="#00b7bd" fill-opacity="0.502" d="   M 21.39 42.04   Q 21.20 42.23 21.57 42.54   L 21.58 62.66   Q 21.51 62.77 21.43 62.88   L 0.75 62.77   L 0.72 42.67   A 0.62 0.62 0.0 0 1 1.34 42.05   L 21.39 42.04   Z"/>
<path xmlns="http://www.w3.org/2000/svg" fill="#00b9bf" d="   M 92.04 42.44   Q 76.14 60.06 60.44 77.43   C 59.03 79.00 58.06 79.59 56.12 79.06   A 1.47 1.47 0.0 0 1 55.16 77.03   Q 59.50 67.46 61.95 62.04   Q 62.95 59.83 62.08 56.96   C 60.59 52.00 55.01 51.43 51.29 54.50   C 49.10 56.31 47.73 60.60 46.55 63.50   L 42.05 62.66   L 42.08 42.94   Q 42.80 42.24 44.50 42.23   Q 53.56 42.15 62.86 42.15   L 92.04 42.44   Z"/>
<path xmlns="http://www.w3.org/2000/svg" fill="#00b9bf" d="   M 124.63 42.06   Q 124.67 42.23 124.88 42.32   L 124.95 62.15   A 0.48 0.46 32.6 0 0 125.00 62.36   Q 125.29 62.87 126.04 62.80   Q 125.61 63.27 125.53 63.67   Q 123.25 63.43 121.23 64.99   Q 107.16 75.86 93.41 86.67   A 1.31 1.30 -34.0 0 1 91.47 86.30   L 91.29 85.99   A 1.38 1.37 53.1 0 1 91.52 84.32   Q 99.91 76.08 121.82 54.83   Q 125.68 51.09 123.32 47.09   C 121.46 43.93 117.09 43.11 114.50 45.51   Q 106.19 53.19 82.72 75.32   A 1.28 1.27 53.2 0 1 80.74 75.03   L 80.49 74.59   A 0.89 0.89 0.0 0 1 80.59 73.56   Q 92.80 59.63 105.25 45.50   Q 106.34 44.26 106.51 42.10   L 124.63 42.06   Z"/>
<path xmlns="http://www.w3.org/2000/svg" fill="#00b7bd" fill-opacity="0.502" d="   M 145.62 42.14   L 165.68 42.22   A 0.51 0.50 90.0 0 1 166.18 42.73   L 166.24 62.69   L 146.05 62.66   A 0.43 0.43 0.0 0 1 145.62 62.23   L 145.62 43.79   L 145.61 42.86   Q 145.84 42.23 145.62 42.14   Z"/>
<path xmlns="http://www.w3.org/2000/svg" fill="#00b9bf" fill-opacity="0.800" d="   M 41.84 42.45   Q 42.05 42.67 42.08 42.94   L 42.05 62.66   L 21.58 62.66   L 21.57 42.54   L 41.84 42.45   Z"/>
<path xmlns="http://www.w3.org/2000/svg" fill="#00b9bf" fill-opacity="0.800" d="   M 145.61 42.86   L 145.62 43.79   L 145.57 62.74   L 126.04 62.80   Q 125.29 62.87 125.00 62.36   A 0.48 0.46 32.6 0 1 124.95 62.15   L 124.88 42.32   L 144.59 42.30   A 1.16 1.15 64.3 0 1 145.32 42.56   Q 145.47 42.70 145.61 42.86   Z"/>
<path xmlns="http://www.w3.org/2000/svg" fill="#00a5c0" fill-opacity="0.698" d="   M 166.24 62.69   L 166.24 104.16   L 145.63 104.10   L 145.60 82.84   L 145.57 62.74   L 145.62 43.79   L 145.62 62.23   A 0.43 0.43 0.0 0 0 146.05 62.66   L 166.24 62.69   Z"/>
<path xmlns="http://www.w3.org/2000/svg" fill="#00abbf" d="   M 42.05 62.66   L 46.55 63.50   L 38.38 83.78   Q 29.91 82.77 21.39 84.19   L 21.43 62.88   Q 21.51 62.77 21.58 62.66   L 42.05 62.66   Z"/>
<path xmlns="http://www.w3.org/2000/svg" fill="#00a5c0" fill-opacity="0.698" d="   M 21.43 62.88   L 21.39 84.19   L 21.55 104.17   Q 21.73 104.97 21.50 105.30   Q 21.52 105.06 21.49 104.87   A 0.67 0.67 0.0 0 0 20.82 104.27   L 0.77 104.26   L 0.75 62.77   L 21.43 62.88   Z"/>
<path xmlns="http://www.w3.org/2000/svg" fill="#00abbf" d="   M 145.57 62.74   L 145.60 82.84   Q 131.03 83.87 116.39 82.96   Q 122.39 77.81 128.30 72.81   Q 129.62 71.70 129.61 69.01   Q 129.60 64.77 125.53 63.67   Q 125.61 63.27 126.04 62.80   L 145.57 62.74   Z"/>
<path xmlns="http://www.w3.org/2000/svg" fill="#009dbf" d="   M 145.60 82.84   L 145.63 104.10   Q 145.28 104.59 145.41 104.19   L 124.92 104.20   L 114.43 103.20   Q 119.79 98.76 125.08 94.34   C 126.25 93.37 127.37 90.80 126.76 89.10   C 124.90 83.94 120.02 86.36 116.90 88.65   Q 116.42 89.01 98.65 101.96   A 1.07 1.07 0.0 0 1 96.91 101.37   L 96.88 101.27   A 2.63 2.62 64.0 0 1 97.75 98.73   L 116.39 82.96   Q 131.03 83.87 145.60 82.84   Z"/>
<path xmlns="http://www.w3.org/2000/svg" fill="#009dbf" d="   M 38.38 83.78   Q 35.75 93.84 39.36 104.14   L 21.55 104.17   L 21.39 84.19   Q 29.91 82.77 38.38 83.78   Z"/>
<path xmlns="http://www.w3.org/2000/svg" fill="#008fbf" d="   M 114.43 103.20   L 124.92 104.20   L 124.90 124.60   L 104.20 124.99   L 88.91 124.48   L 114.43 103.20   Z"/>
<path xmlns="http://www.w3.org/2000/svg" fill="#008dbd" fill-opacity="0.502" d="   M 166.24 104.16   L 166.32 124.24   A 0.51 0.50 -1.1 0 1 165.82 124.75   L 145.65 124.79   L 145.60 107.79   L 145.60 105.98   L 145.57 105.09   L 145.41 104.19   Q 145.28 104.59 145.63 104.10   L 166.24 104.16   Z"/>
<path xmlns="http://www.w3.org/2000/svg" fill="#008dbd" fill-opacity="0.502" d="   M 21.50 105.30   L 21.50 124.72   Q 21.49 124.80 21.47 124.88   L 1.27 124.89   A 0.48 0.47 89.4 0 1 0.80 124.42   L 0.77 104.26   L 20.82 104.27   A 0.67 0.67 0.0 0 1 21.49 104.87   Q 21.52 105.06 21.50 105.30   Z"/>
<path xmlns="http://www.w3.org/2000/svg" fill="#008fbf" fill-opacity="0.800" d="   M 39.36 104.14   L 42.35 110.69   L 42.12 124.81   L 21.50 124.72   L 21.50 105.30   Q 21.73 104.97 21.55 104.17   L 39.36 104.14   Z"/>
<path xmlns="http://www.w3.org/2000/svg" fill="#008fbf" fill-opacity="0.800" d="   M 145.41 104.19   L 145.57 105.09   L 145.60 105.98   L 145.60 107.79   L 145.51 124.26   A 0.61 0.60 0.0 0 1 144.90 124.86   L 126.29 124.86   Q 125.65 124.92 124.90 124.60   L 124.92 104.20   L 145.41 104.19   Z"/>
<path xmlns="http://www.w3.org/2000/svg" fill="#00a5c0" fill-opacity="0.698" d="   M 145.60 105.98   L 145.57 105.09   L 145.60 105.98   Z"/>
<path xmlns="http://www.w3.org/2000/svg" fill="#0082c0" fill-opacity="0.698" d="   M 145.65 124.79   L 145.65 145.12   A 0.45 0.44 -0.0 0 1 145.20 145.56   L 124.86 145.58   Q 124.30 145.39 124.69 145.44   L 124.88 125.60   A 0.76 0.75 -5.6 0 1 125.49 124.86   Q 125.82 124.80 126.29 124.86   L 144.90 124.86   A 0.61 0.60 0.0 0 0 145.51 124.26   L 145.60 107.79   L 145.65 124.79   Z"/>
<path xmlns="http://www.w3.org/2000/svg" fill="#008fbf" d="   M 56.79 124.71   L 42.13 124.86   Q 42.12 124.84 42.12 124.81   L 42.35 110.69   Q 47.87 119.43 56.79 124.71   Z"/>
<path xmlns="http://www.w3.org/2000/svg" fill="#0082c0" fill-opacity="0.698" d="   M 42.12 124.81   Q 42.12 124.84 42.13 124.86   L 42.12 145.45   Q 42.15 145.50 42.18 145.55   L 22.02 145.49   A 0.51 0.51 0.0 0 1 21.51 144.98   L 21.47 124.88   Q 21.49 124.80 21.50 124.72   L 42.12 124.81   Z"/>
<path xmlns="http://www.w3.org/2000/svg" fill="#0082bf" d="   M 88.91 124.48   L 104.20 124.99   L 104.24 145.49   L 62.94 145.50   Q 62.79 145.56 62.45 145.44   L 62.84 144.09   A 1.91 1.74 56.2 0 0 62.92 143.55   L 62.89 127.45   C 72.12 130.42 80.80 129.94 88.91 124.48   Z"/>
<path xmlns="http://www.w3.org/2000/svg" fill="#0082bf" fill-opacity="0.800" d="   M 126.29 124.86   Q 125.82 124.80 125.49 124.86   A 0.76 0.75 -5.6 0 0 124.88 125.60   L 124.69 145.44   L 104.16 145.49   Q 104.20 145.49 104.24 145.49   L 104.20 124.99   L 124.90 124.60   Q 125.65 124.92 126.29 124.86   Z"/>
<path xmlns="http://www.w3.org/2000/svg" fill="#0082bf" fill-opacity="0.800" d="   M 56.79 124.71   L 62.89 127.45   L 62.92 143.55   A 1.91 1.74 56.2 0 1 62.84 144.09   L 62.45 145.44   L 42.12 145.45   L 42.13 124.86   L 56.79 124.71   Z"/>
<path xmlns="http://www.w3.org/2000/svg" fill="#0074bd" fill-opacity="0.502" d="   M 62.45 145.44   Q 62.79 145.56 62.94 145.50   L 62.88 166.14   L 42.57 166.14   A 0.46 0.46 0.0 0 1 42.11 165.68   L 42.18 145.55   Q 42.15 145.50 42.12 145.45   L 62.45 145.44   Z"/>
<path xmlns="http://www.w3.org/2000/svg" fill="#0074bd" fill-opacity="0.502" d="   M 124.69 145.44   Q 124.30 145.39 124.86 145.58   L 124.88 165.78   A 0.34 0.33 -90.0 0 1 124.55 166.12   L 104.25 166.14   L 104.16 145.49   L 124.69 145.44   Z"/>
<path xmlns="http://www.w3.org/2000/svg" fill="#0074c0" fill-opacity="0.698" d="   M 104.24 145.49   Q 104.20 145.49 104.16 145.49   L 104.25 166.14   L 62.88 166.14   L 62.94 145.50   L 104.24 145.49   Z"/>
</g></g></g></g></svg>