<?xml version="1.0" standalone="no"?><!DOCTYPE svg PUBLIC "-//W3C//DTD SVG 1.1//EN" "http://www.w3.org/Graphics/SVG/1.1/DTD/svg11.dtd"><svg t="1776182223695" class="icon" viewBox="0 0 1024 1024" version="1.1" xmlns="http://www.w3.org/2000/svg" p-id="7838" xmlns:xlink="http://www.w3.org/1999/xlink" width="200" height="200"><path d="M0.199118 511.985779c0 282.771102 229.243119 512.014221 512.014221 512.014221C794.956 1024 1024.199118 794.756881 1024.199118 511.957337 1024.199118 229.243119 794.956 0 512.213339 0 229.442237 0 0.199118 229.243119 0.199118 511.985779z" fill="#F39022" p-id="7839"></path><path d="M628.655191 635.53815c46.730328-41.781407 106.060495-55.177624 147.244619-37.088465 3.185512-9.215232 5.859067-18.601117 8.049107-28.10077H607.52273c-5.233342 25.455656-22.554565 61.321112-78.98364 61.321112-87.34561 0-89.876955-86.094159-89.876955-86.094158h170.993751v0.170652h178.701552c1.564314-11.945671 2.673555-24.005111 2.673555-36.348971 0-121.447657-79.353387-224.208871-188.997583-259.619254 234.732439-164.565842 192.325306 66.554454 192.325306 66.554454 48.2662-133.108908-8.305086-194.657556-186.352471-98.153598-13.794406 7.451823-26.963086 15.21651-39.90423 23.094964a273.726523 273.726523 0 0 0-49.972724-4.778268c-146.562009 0-265.791184 115.617032-272.275977 260.643168 81.514985-119.741133 220.710496-187.433269 220.710496-187.433269l0.14221 3.98189c-95.394717 79.52404-159.958226 169.998278-206.489459 257.258562-66.554454 124.77538-53.243563 234.647113-8.305085 264.568175 67.578368 45.023804 161.323445-11.490598 219.487487-57.424548a272.560398 272.560398 0 0 0 46.730328 4.180985c19.511263 0 38.510569-2.047829 56.827264-5.972836-12.514513-42.77688 7.508708-99.433492 53.698636-140.759825z m-108.847818-253.475766c87.374052 0 89.876955 86.122601 89.876955 86.122601h-170.993751s-6.257256-86.122601 81.116796-86.122601z m-232.940588 280.41041l2.673555-4.835153a272.674166 272.674166 0 0 0 165.333778 117.124462c-278.703886 160.925256-168.007333-112.289309-168.007333-112.289309z" fill="#FFFFFF" p-id="7840"></path><path d="M775.89981 598.421243c-41.184124-18.060717-100.51429-4.6645-147.244619 37.116907-46.189929 41.326334-66.213149 97.982946-53.698636 140.788267a273.186123 273.186123 0 0 0 200.943255-177.876732z" fill="#FFFFFF" p-id="7841"></path></svg>