<?xml version="1.0" standalone="no"?><!DOCTYPE svg PUBLIC "-//W3C//DTD SVG 1.1//EN" "http://www.w3.org/Graphics/SVG/1.1/DTD/svg11.dtd"><svg t="1776182114286" class="icon" viewBox="0 0 1024 1024" version="1.1" xmlns="http://www.w3.org/2000/svg" p-id="5830" xmlns:xlink="http://www.w3.org/1999/xlink" width="200" height="200"><path d="M128 264.533333A93.866667 93.866667 0 0 1 221.866667 170.666667h537.6A93.866667 93.866667 0 0 1 853.333333 264.533333v324.266667a93.866667 93.866667 0 0 1-93.866666 93.866667H221.866667A93.866667 93.866667 0 0 1 128 588.8V264.533333z" fill="#FFFFFF" p-id="5831"></path><path d="M761.6 776.32a38.4 38.4 0 1 1 0 76.8H219.733333a38.4 38.4 0 0 1 0-76.8h541.866667z m-2.048-643.968c73.045333 0 132.266667 59.221333 132.266667 132.266667v324.266666c0 73.045333-59.221333 132.266667-132.266667 132.266667h-537.6a132.309333 132.309333 0 0 1-132.266667-132.266667v-324.266666c0-73.045333 59.221333-132.266667 132.266667-132.266667h537.6z m-537.6 76.8a55.466667 55.466667 0 0 0-55.466667 55.466667v324.266666a55.466667 55.466667 0 0 0 55.466667 55.466667h537.6a55.466667 55.466667 0 0 0 55.466667-55.466667v-324.266666a55.466667 55.466667 0 0 0-55.466667-55.466667h-537.6z m386.986667 89.386667a15.530667 15.530667 0 0 1 21.12 17.706666l-50.218667 225.877334a15.530667 15.530667 0 0 1-24.789333 8.789333l-58.88-46.634667 78.293333-139.690666-169.301333 104.234666-72.192-25.728a15.530667 15.530667 0 0 1-0.768-28.928l276.736-115.626666z" fill="#161C2D" p-id="5832"></path></svg>