<svg xmlns="http://www.w3.org/2000/svg" xmlns:xlink="http://www.w3.org/1999/xlink" xml:space="preserve" id="Layer_1" x="0" y="0" viewBox="0 0 512 512"><style>.st0{fill:#67bf79}</style><path d="M512 256c0 141.4-114.6 256-256 256S0 397.4 0 256 114.6 0 256 0s256 114.6 256 256M256.5 512h-.9.9M0 255.7v.6z" class="st0"/><defs><path id="SVGID_1_" d="M0 0h512v512H0z"/></defs><clipPath id="SVGID_2_"><use xlink:href="#SVGID_1_" style="overflow:visible"/></clipPath><path d="M256 0C114.7 0 .2 114.4 0 255.7v.6C.2 397.4 114.5 511.7 255.5 512h.9c2.3 0 4.5 0 6.8-.1L130 377.8c-9.5-2.6-9.5-10.1-9.5-32.1V162c0-32.7 0-33.4 31.2-33.5H163c24.7 0 29.8.5 30.9 16.9l31.2 29.5v-29.4c0-11.3 5.6-17 16.8-17h75.6c38.9.1 69.2 23.8 87 56.1l105.5 104c1.4-10.7 2.1-21.6 2.1-32.6C512 114.6 397.4 0 256 0" style="clip-path:url(#SVGID_2_);fill:#67bf79"/><linearGradient id="SVGID_3_" x1="2.577" x2="2.588" y1="510.516" y2="510.516" gradientTransform="matrix(154.5831 164.9703 -161.4531 157.9507 82600.133 -80709.54)" gradientUnits="userSpaceOnUse"><stop offset="0" style="stop-color:#fff"/><stop offset="1" style="stop-color:#fff"/></linearGradient><path d="M575.1 352.8" style="fill:url(#SVGID_3_)"/><defs><path id="SVGID_4_" d="M126.2 144H512v368H126.2z"/></defs><clipPath id="SVGID_5_"><use xlink:href="#SVGID_4_" style="overflow:visible"/></clipPath><linearGradient id="SVGID_6_" x1=".681" x2="2.681" y1="511.26" y2="511.26" gradientTransform="matrix(154.5831 164.9703 -161.4531 157.9507 82600.133 -80709.54)" gradientUnits="userSpaceOnUse"><stop offset="0" style="stop-color:#fff"/><stop offset="1" style="stop-color:#fff"/></linearGradient><path d="M509.9 288.6c-15.7 123.6-119.7 219.7-246.7 223.3l90.2 90.7 221.7-249.8z" style="clip-path:url(#SVGID_5_);fill:url(#SVGID_6_)"/><linearGradient id="SVGID_7_" x1=".681" x2="2.681" y1="511.281" y2="511.281" gradientTransform="matrix(154.5831 164.9703 -161.4531 157.9507 82600.133 -80709.54)" gradientUnits="userSpaceOnUse"><stop offset="0" style="stop-color:#4cb36b"/><stop offset="1" style="stop-color:#3ea16f"/></linearGradient><path d="M193.8 145.4c.3 4.3.3 9.8.3 16.6v183.7c0 33.5 0 33.5-33.5 33.5H154c-11.5 0-19 0-24-1.4l133.2 134.1c127.1-3.5 231-99.6 246.7-223.3l-105.5-104c11.6 21 17.9 45.7 17.9 69.9 0 61.5-41.3 124.6-105.3 124.6h-75.1c-11.4 0-17-5.6-17-17V174.9z" style="clip-path:url(#SVGID_5_);fill:url(#SVGID_7_)"/><path d="M160.7 128.5h-9H163z" class="st0"/><defs><path id="SVGID_8_" d="M120.5 128.5h73.6v250.7h-73.6z"/></defs><clipPath id="SVGID_9_"><use xlink:href="#SVGID_8_" style="overflow:visible"/></clipPath><path d="M163 128.5h-11.3c-31.2 0-31.2.8-31.2 33.5v183.7c0 22 0 29.5 9.5 32.1l-3.8-3.8 66.1-230 1.5 1.4c-1-16.4-6.2-16.9-30.8-16.9" style="clip-path:url(#SVGID_9_);fill:#fff"/><linearGradient id="SVGID_10_" x1=".681" x2="2.681" y1="511.575" y2="511.575" gradientTransform="matrix(154.5831 164.9703 -161.4531 157.9507 82600.133 -80709.54)" gradientUnits="userSpaceOnUse"><stop offset="0" style="stop-color:#fff"/><stop offset="1" style="stop-color:#fff"/></linearGradient><path d="m192.4 144-66.1 230 3.8 3.8c5 1.4 12.5 1.4 24 1.4h6.7c33.5 0 33.5 0 33.5-33.5V162c0-6.8 0-12.3-.3-16.6z" style="clip-path:url(#SVGID_9_);fill:url(#SVGID_10_)"/><path d="M317.2 128.5h-75.3 75.5z" class="st0"/><defs><path id="SVGID_11_" d="M225.1 128.5h197.3v250.7H225.1z"/></defs><clipPath id="SVGID_12_"><use xlink:href="#SVGID_11_" style="overflow:visible"/></clipPath><path d="M317.4 128.5h-75.5c-11.3.1-16.8 5.7-16.8 17v29.4l96.4 91 78.6-85.7 4.5 4.4c-18-32.3-48.3-56-87.2-56.1" style="clip-path:url(#SVGID_12_);fill:#fff"/><linearGradient id="SVGID_13_" x1=".681" x2="2.681" y1="511.129" y2="511.129" gradientTransform="matrix(154.5831 164.9703 -161.4531 157.9507 82600.133 -80709.54)" gradientUnits="userSpaceOnUse"><stop offset="0" style="stop-color:#fff"/><stop offset="1" style="stop-color:#fff"/></linearGradient><path d="M225.1 174.9v187.3c0 11.4 5.6 17 17 17h75.1c64 0 105.3-63.1 105.3-124.6 0-24.2-6.3-48.9-17.9-69.9l-4.5-4.4-78.7 85.7z" style="clip-path:url(#SVGID_12_);fill:url(#SVGID_13_)"/></svg>