<svg xmlns="http://www.w3.org/2000/svg" viewBox="0 0 24 24" fill="#ffffff"><title>WeChat</title><path d="M8.691 2.188C3.891 2.188 0 5.476 0 9.53c0 2.212 1.17 4.203 3.002 5.55a.59.59 0 0 1 .213.665l-.39 1.48c-.019.07-.048.141-.048.213 0 .163.13.295.29.295a.326.326 0 0 0 .167-.054l1.903-1.114a.864.864 0 0 1 .717-.098 10.16 10.16 0 0 0 2.837.403c.276 0 .543-.203.59-.35C8.17 10.38 11.43 6.5 16.64 6.5c.141 0 .29 0 .432.004C16.63 3.902 13.021 2.188 8.691 2.188z M17.312 8.594c-4.146 0-7.516 2.808-7.516 6.265 0 3.457 3.37 6.266 7.516 6.266a9.2 9.2 0 0 0 2.428-.348.737.737 0 0 1 .607.082l1.625.952a.278.278 0 0 0 .142.046.25.25 0 0 0 .246-.252c0-.061-.024-.119-.04-.18-.03-.112-.17-.644-.33-1.265a.508.508 0 0 1 .183-.57C23.006 18.43 24 16.735 24 14.858c0-3.456-3.37-6.264-6.688-6.264z"/></svg>